<svg xmlns="http://www.w3.org/2000/svg" xmlns:xlink="http://www.w3.org/1999/xlink" width="500" zoomAndPan="magnify"  viewBox="0 0 375 374.999991" height="500" preserveAspectRatio="xMidYMid meet" version="1.0"><defs><g/><clipPath id="4b0d8dc8a0"><path d="M 234.460938 200.09375 L 275.761719 200.09375 L 275.761719 241.394531 L 234.460938 241.394531 Z M 234.460938 200.09375 " clip-rule="nonzero"/></clipPath><clipPath id="54cedad0a5"><path d="M 255.113281 200.09375 C 243.707031 200.09375 234.460938 209.339844 234.460938 220.746094 C 234.460938 232.148438 243.707031 241.394531 255.113281 241.394531 C 266.515625 241.394531 275.761719 232.148438 275.761719 220.746094 C 275.761719 209.339844 266.515625 200.09375 255.113281 200.09375 Z M 255.113281 200.09375 " clip-rule="nonzero"/></clipPath><clipPath id="70a119c881"><path d="M 68.042969 65.296875 L 141.863281 65.296875 L 141.863281 139.117188 L 68.042969 139.117188 Z M 68.042969 65.296875 " clip-rule="nonzero"/></clipPath><clipPath id="948c1fb951"><path d="M 104.953125 65.296875 C 84.566406 65.296875 68.042969 81.820312 68.042969 102.207031 C 68.042969 122.59375 84.566406 139.117188 104.953125 139.117188 C 125.335938 139.117188 141.863281 122.59375 141.863281 102.207031 C 141.863281 81.820312 125.335938 65.296875 104.953125 65.296875 Z M 104.953125 65.296875 " clip-rule="nonzero"/></clipPath><clipPath id="fba8c92c9e"><path d="M 246.390625 212.023438 L 263.835938 212.023438 L 263.835938 229.46875 L 246.390625 229.46875 Z M 246.390625 212.023438 " clip-rule="nonzero"/></clipPath><clipPath id="4a047d4134"><path d="M 255.113281 212.023438 C 250.292969 212.023438 246.390625 215.925781 246.390625 220.746094 C 246.390625 225.5625 250.292969 229.46875 255.113281 229.46875 C 259.929688 229.46875 263.835938 225.5625 263.835938 220.746094 C 263.835938 215.925781 259.929688 212.023438 255.113281 212.023438 Z M 255.113281 212.023438 " clip-rule="nonzero"/></clipPath></defs><rect x="-37.5" width="450" fill="#ffffff" y="-37.499999" height="449.999989" fill-opacity="1"/><rect x="-37.5" width="450" fill="#ffffff" y="-37.499999" height="449.999989" fill-opacity="1"/><g fill="#000000" fill-opacity="1"><g transform="translate(100.035921, 221.207659)"><g><path d="M 68.953125 -118.75 L 116.875 0 L 87.796875 0 L 79.015625 -23.75 L 33.828125 -23.75 L 25.046875 0 L -4.03125 0 L 43.90625 -118.75 Z M 69.8125 -47.5 L 56.5625 -82.046875 L 56.28125 -82.046875 L 43.03125 -47.5 Z M 69.8125 -47.5 "/></g></g></g><g fill="#000000" fill-opacity="1"><g transform="translate(178.755576, 221.207659)"><g><path d="M 8.640625 -118.75 L 51.09375 -118.75 C 62.507812 -118.75 71.816406 -115.703125 79.015625 -109.609375 C 86.210938 -103.515625 89.8125 -94.804688 89.8125 -83.484375 C 89.8125 -74.753906 87.628906 -67.4375 83.265625 -61.53125 C 78.898438 -55.632812 72.972656 -51.484375 65.484375 -49.078125 L 106.375 0 L 71.96875 0 L 35.703125 -46.921875 L 35.703125 0 L 8.640625 0 Z M 35.703125 -66.0625 L 38.859375 -66.0625 C 41.359375 -66.0625 43.46875 -66.109375 45.1875 -66.203125 C 46.914062 -66.304688 48.882812 -66.644531 51.09375 -67.21875 C 53.300781 -67.789062 55.078125 -68.601562 56.421875 -69.65625 C 57.765625 -70.71875 58.914062 -72.253906 59.875 -74.265625 C 60.832031 -76.285156 61.3125 -78.734375 61.3125 -81.609375 C 61.3125 -84.492188 60.832031 -86.941406 59.875 -88.953125 C 58.914062 -90.960938 57.765625 -92.492188 56.421875 -93.546875 C 55.078125 -94.609375 53.300781 -95.425781 51.09375 -96 C 48.882812 -96.582031 46.914062 -96.921875 45.1875 -97.015625 C 43.46875 -97.109375 41.359375 -97.15625 38.859375 -97.15625 L 35.703125 -97.15625 Z M 35.703125 -66.0625 "/></g></g></g><g clip-path="url(#4b0d8dc8a0)"><g clip-path="url(#54cedad0a5)"><path fill="#ffffff" d="M 234.460938 200.09375 L 275.761719 200.09375 L 275.761719 241.394531 L 234.460938 241.394531 Z M 234.460938 200.09375 " fill-opacity="1" fill-rule="nonzero"/></g></g><g clip-path="url(#70a119c881)"><g clip-path="url(#948c1fb951)"><path fill="#ffffff" d="M 68.042969 65.296875 L 141.863281 65.296875 L 141.863281 139.117188 L 68.042969 139.117188 Z M 68.042969 65.296875 " fill-opacity="1" fill-rule="nonzero"/></g></g><g clip-path="url(#fba8c92c9e)"><g clip-path="url(#4a047d4134)"><path fill="#000000" d="M 246.390625 212.023438 L 263.835938 212.023438 L 263.835938 229.46875 L 246.390625 229.46875 Z M 246.390625 212.023438 " fill-opacity="1" fill-rule="nonzero"/></g></g><g fill="#000000" fill-opacity="1"><g transform="translate(101.16212, 249.18007)"><g><path d="M 8.15625 -11.96875 L 13.140625 0 L 10.375 0 L 9.296875 -2.5625 L 4.21875 -2.5625 L 3.15625 0 L 0.375 0 L 5.359375 -11.96875 Z M 8.34375 -4.890625 L 6.765625 -8.65625 L 5.203125 -4.890625 Z M 8.34375 -4.890625 "/></g></g></g><g fill="#000000" fill-opacity="1"><g transform="translate(116.993889, 249.18007)"><g><path d="M 8.28125 -6.515625 C 8.757812 -6.191406 9.140625 -5.769531 9.421875 -5.25 C 9.703125 -4.738281 9.84375 -4.175781 9.84375 -3.5625 C 9.84375 -3.0625 9.742188 -2.59375 9.546875 -2.15625 C 9.359375 -1.726562 9.097656 -1.351562 8.765625 -1.03125 C 8.441406 -0.71875 8.0625 -0.46875 7.625 -0.28125 C 7.195312 -0.09375 6.738281 0 6.25 0 L 0.8125 0 L 0.8125 -11.96875 L 6.078125 -11.96875 C 6.523438 -11.96875 6.945312 -11.878906 7.34375 -11.703125 C 7.738281 -11.523438 8.082031 -11.289062 8.375 -11 C 8.675781 -10.707031 8.910156 -10.363281 9.078125 -9.96875 C 9.242188 -9.570312 9.328125 -9.148438 9.328125 -8.703125 C 9.328125 -8.222656 9.234375 -7.800781 9.046875 -7.4375 C 8.867188 -7.070312 8.613281 -6.765625 8.28125 -6.515625 Z M 3.375 -7.46875 L 6.078125 -7.46875 C 6.378906 -7.46875 6.632812 -7.570312 6.84375 -7.78125 C 7.0625 -8 7.171875 -8.265625 7.171875 -8.578125 C 7.171875 -8.878906 7.0625 -9.128906 6.84375 -9.328125 C 6.632812 -9.535156 6.378906 -9.640625 6.078125 -9.640625 L 3.375 -9.640625 Z M 6.25 -2.3125 C 6.582031 -2.3125 6.863281 -2.453125 7.09375 -2.734375 C 7.332031 -3.023438 7.453125 -3.363281 7.453125 -3.75 C 7.453125 -4.144531 7.332031 -4.472656 7.09375 -4.734375 C 6.863281 -5.003906 6.582031 -5.140625 6.25 -5.140625 L 3.375 -5.140625 L 3.375 -2.3125 Z M 6.25 -2.3125 "/></g></g></g><g fill="#000000" fill-opacity="1"><g transform="translate(129.753932, 249.18007)"><g><path d="M 5.640625 -11.96875 C 6.503906 -11.96875 7.265625 -11.804688 7.921875 -11.484375 C 8.585938 -11.171875 9.144531 -10.742188 9.59375 -10.203125 C 10.039062 -9.671875 10.378906 -9.035156 10.609375 -8.296875 C 10.835938 -7.566406 10.953125 -6.789062 10.953125 -5.96875 C 10.953125 -5.132812 10.828125 -4.351562 10.578125 -3.625 C 10.335938 -2.90625 10.003906 -2.273438 9.578125 -1.734375 C 9.148438 -1.191406 8.644531 -0.765625 8.0625 -0.453125 C 7.476562 -0.148438 6.84375 0 6.15625 0 L 0.8125 0 L 0.8125 -11.96875 Z M 5.65625 -2.3125 C 6.132812 -2.3125 6.546875 -2.410156 6.890625 -2.609375 C 7.234375 -2.804688 7.515625 -3.070312 7.734375 -3.40625 C 7.960938 -3.75 8.128906 -4.140625 8.234375 -4.578125 C 8.347656 -5.015625 8.40625 -5.472656 8.40625 -5.953125 C 8.40625 -6.441406 8.351562 -6.90625 8.25 -7.34375 C 8.144531 -7.789062 7.976562 -8.179688 7.75 -8.515625 C 7.53125 -8.859375 7.242188 -9.128906 6.890625 -9.328125 C 6.546875 -9.535156 6.132812 -9.640625 5.65625 -9.640625 L 3.375 -9.640625 L 3.375 -2.3125 Z M 5.65625 -2.3125 "/></g></g></g><g fill="#000000" fill-opacity="1"><g transform="translate(143.594145, 249.18007)"><g><path d="M 7.5625 -11.96875 L 10.109375 -11.96875 L 10.109375 -4.3125 C 10.109375 -3.71875 9.984375 -3.144531 9.734375 -2.59375 C 9.484375 -2.039062 9.144531 -1.554688 8.71875 -1.140625 C 8.289062 -0.722656 7.789062 -0.390625 7.21875 -0.140625 C 6.65625 0.0976562 6.050781 0.21875 5.40625 0.21875 C 4.757812 0.21875 4.148438 0.0976562 3.578125 -0.140625 C 3.003906 -0.390625 2.503906 -0.722656 2.078125 -1.140625 C 1.660156 -1.554688 1.328125 -2.039062 1.078125 -2.59375 C 0.828125 -3.144531 0.703125 -3.71875 0.703125 -4.3125 L 0.703125 -11.96875 L 3.25 -11.96875 L 3.25 -4.828125 C 3.25 -4.484375 3.304688 -4.160156 3.421875 -3.859375 C 3.535156 -3.566406 3.6875 -3.304688 3.875 -3.078125 C 4.070312 -2.847656 4.300781 -2.664062 4.5625 -2.53125 C 4.832031 -2.394531 5.113281 -2.328125 5.40625 -2.328125 C 5.707031 -2.328125 5.984375 -2.394531 6.234375 -2.53125 C 6.492188 -2.664062 6.722656 -2.847656 6.921875 -3.078125 C 7.117188 -3.304688 7.273438 -3.566406 7.390625 -3.859375 C 7.503906 -4.160156 7.5625 -4.484375 7.5625 -4.828125 Z M 7.5625 -11.96875 "/></g></g></g><g fill="#000000" fill-opacity="1"><g transform="translate(156.708616, 249.18007)"><g><path d="M 3.359375 -2.3125 L 8.265625 -2.3125 L 8.265625 0 L 0.796875 0 L 0.796875 -11.96875 L 3.359375 -11.96875 Z M 3.359375 -2.3125 "/></g></g></g><g fill="#000000" fill-opacity="1"><g transform="translate(167.460221, 249.18007)"><g/></g></g><g fill="#000000" fill-opacity="1"><g transform="translate(174.414362, 249.18007)"><g><path d="M 9.40625 -8.40625 C 9.40625 -8.019531 9.347656 -7.65625 9.234375 -7.3125 C 9.128906 -6.96875 8.976562 -6.648438 8.78125 -6.359375 C 8.59375 -6.078125 8.363281 -5.828125 8.09375 -5.609375 C 7.820312 -5.390625 7.53125 -5.210938 7.21875 -5.078125 L 11.1875 0 L 8.203125 0 L 4.5 -4.828125 L 3.359375 -4.828125 L 3.359375 0 L 0.796875 0 L 0.796875 -11.96875 L 5.953125 -11.96875 C 6.429688 -11.96875 6.878906 -11.875 7.296875 -11.6875 C 7.722656 -11.5 8.085938 -11.242188 8.390625 -10.921875 C 8.703125 -10.609375 8.945312 -10.234375 9.125 -9.796875 C 9.3125 -9.359375 9.40625 -8.894531 9.40625 -8.40625 Z M 5.640625 -7.15625 C 5.960938 -7.15625 6.238281 -7.273438 6.46875 -7.515625 C 6.707031 -7.753906 6.828125 -8.050781 6.828125 -8.40625 C 6.828125 -8.738281 6.707031 -9.023438 6.46875 -9.265625 C 6.238281 -9.515625 5.960938 -9.640625 5.640625 -9.640625 L 3.359375 -9.640625 L 3.359375 -7.15625 Z M 5.640625 -7.15625 "/></g></g></g><g fill="#000000" fill-opacity="1"><g transform="translate(188.322082, 249.18007)"><g><path d="M 0.8125 -11.96875 L 8.28125 -11.96875 L 8.28125 -9.640625 L 3.375 -9.640625 L 3.375 -7.46875 L 7.6875 -7.46875 L 7.6875 -5.140625 L 3.375 -5.140625 L 3.375 -2.3125 L 8.28125 -2.3125 L 8.28125 0 L 0.8125 0 Z M 0.8125 -11.96875 "/></g></g></g><g fill="#000000" fill-opacity="1"><g transform="translate(199.731916, 249.18007)"><g><path d="M 8.828125 -11.96875 L 11.390625 -11.96875 L 11.390625 0 L 8.828125 0 L 8.828125 -5.140625 L 3.34375 -5.140625 L 3.34375 0 L 0.796875 0 L 0.796875 -11.96875 L 3.34375 -11.96875 L 3.34375 -7.46875 L 8.828125 -7.46875 Z M 8.828125 -11.96875 "/></g></g></g><g fill="#000000" fill-opacity="1"><g transform="translate(214.230355, 249.18007)"><g><path d="M 11.265625 -11.96875 L 13.6875 -11.96875 L 13.6875 0 L 11.140625 0 L 11.140625 -7.890625 L 8.28125 -3.890625 L 6.25 -3.890625 L 3.359375 -7.78125 L 3.359375 0 L 0.796875 0 L 0.796875 -11.96875 L 3.21875 -11.96875 L 7.265625 -6.453125 Z M 11.265625 -11.96875 "/></g></g></g><g fill="#000000" fill-opacity="1"><g transform="translate(231.024158, 249.18007)"><g><path d="M 8.15625 -11.96875 L 13.140625 0 L 10.375 0 L 9.296875 -2.5625 L 4.21875 -2.5625 L 3.15625 0 L 0.375 0 L 5.359375 -11.96875 Z M 8.34375 -4.890625 L 6.765625 -8.65625 L 5.203125 -4.890625 Z M 8.34375 -4.890625 "/></g></g></g><g fill="#000000" fill-opacity="1"><g transform="translate(246.85593, 249.18007)"><g><path d="M 8.984375 -11.96875 L 11.53125 -11.96875 L 11.53125 0 L 9.09375 0 L 3.34375 -7.8125 L 3.34375 0 L 0.796875 0 L 0.796875 -11.96875 L 3.1875 -11.96875 L 8.984375 -4.09375 Z M 8.984375 -11.96875 "/></g></g></g><g fill="#000000" fill-opacity="1"><g transform="translate(261.489395, 249.18007)"><g><path d="M 8.984375 -11.96875 L 11.53125 -11.96875 L 11.53125 0 L 9.09375 0 L 3.34375 -7.8125 L 3.34375 0 L 0.796875 0 L 0.796875 -11.96875 L 3.1875 -11.96875 L 8.984375 -4.09375 Z M 8.984375 -11.96875 "/></g></g></g></svg>